<?xml version="1.0" standalone="no"?>
<!DOCTYPE svg PUBLIC "-//W3C//DTD SVG 1.1//EN" "http://www.w3.org/Graphics/SVG/1.1/DTD/svg11.dtd">
<svg xmlns="http://www.w3.org/2000/svg" viewBox="0 0 1080 1080" width="1080" height="1080">
  <defs>
    <style>
      .g {
        fill: #1b8ad0;
      }

      .h {
        fill: #fc591a;
      }

      .i {
        fill: #f4981e;
      }

      .j {
        fill: #150f29;
      }

      .k {
        fill: #fd7d1d;
      }

      .l {
        fill: #204aa2;
      }

      .m {
        fill: #ec4127;
      }

      .n {
        fill: #382255;
      }

      .o {
        fill: #2575b9;
      }

      .p {
        fill: #212855;
      }

      .q {
        fill: #0c0a1e;
      }

      .r {
        fill: #24396e;
      }

      .s {
        fill: #fc8b1b;
      }

      .t {
        fill: #811a3b;
      }

      .u {
        fill: #fef9c2;
      }

      .v {
        fill: #e32b2a;
      }

      .w {
        fill: #fdd871;
      }

      .x {
        fill: #acf5e8;
      }

      .y {
        fill: #200f33;
      }

      .z {
        fill: #f9f5bc;
      }

      .aa {
        fill: #232e62;
      }

      .ab {
        fill: #259fd1;
      }

      .ac {
        fill: #f2461e;
      }

      .ad {
        fill: #2ab5d8;
      }

      .ae {
        fill: #1e58b2;
      }

      .af {
        fill: #defadf;
      }

      .ag {
        fill: #5beaf1;
      }

      .ah {
        fill: #120f27;
      }

      .ai {
        fill: #ff352e;
      }

      .aj {
        fill: #63e6ec;
      }

      .ak {
        fill: #feaa2d;
      }

      .al {
        fill: #273e72;
      }

      .am {
        fill: #000e1a;
      }

      .an {
        fill: #fc9828;
      }

      .ao {
        fill: #1e2550;
      }

      .ap {
        fill: #234ba9;
      }

      .aq {
        fill: #f57e20;
      }

      .ar {
        fill: #30c9e8;
      }

      .as {
        fill: #212d5e;
      }

      .at {
        fill: #ea3a29;
      }

      .au {
        fill: #fbe787;
      }

      .av {
        fill: #2594ca;
      }

      .aw {
        fill: #fa8111;
      }

      .ax {
        fill: #100d22;
      }

      .ay {
        fill: #d42732;
      }

      .az {
        fill: #321439;
      }

      .ba {
        fill: #4ddeed;
      }

      .bb {
        fill: #2a5a99;
      }

      .bc {
        fill: #232858;
      }

      .bd {
        fill: #31153c;
      }

      .be {
        fill: #358bc6;
      }

      .bf {
        fill: #202656;
      }

      .bg {
        fill: #2188c5;
      }

      .bh {
        fill: #140925;
      }

      .bi {
        fill: #ff9e23;
      }

      .bj {
        fill: #21b5df;
      }

      .bk {
        fill: #ffe182;
      }

      .bl {
        fill: #2593c9;
      }

      .bm {
        fill: #c1113d;
      }

      .bn {
        fill: #4dd1e1;
      }

      .bo {
        fill: #79113d;
      }

      .bp {
        fill: #da252c;
      }

      .bq {
        fill: #9d203d;
      }

      .br {
        fill: #641e51;
      }

      .bs {
        fill: #ffe790;
      }

      .bt {
        fill: #1c1338;
      }

      .bu {
        fill: #fff6bc;
      }
    </style>
  </defs>
  <g id="a" data-name="Layer 3">
    <g id="c" data-name="inside lines">
      <g>
        <path class="am" d="M476.81,942.48c3.03,1.77,3.75,1.96,3.72,2.13-.22,1.12-34.76-4-50-7.38-37.69-8.35-90.03-34.89-124.29-83.66l4.56-29.95s35.79,75.89,137.51,99.9c5.17,3.91,10.48,7.65,15.92,11.2,2.71,1.77,5.46,3.5,8.23,5.18,1.44.87,2.9,1.74,4.35,2.58Z"/>
        <path class="ae" d="M436.56,913.45c3.7,3.58,7.62,6.95,11.75,10.07-108.6-62.79-82.38-172.11-82.38-172.11,0,0,12.46,19.87,22.57,27.98h.01c-.6,8.16-.73,16.36-.27,24.6.91,16.37,4.26,32.59,9.78,48.02,1.94,5.42,4.14,10.74,6.6,15.94,7.98,16.85,18.56,32.55,31.94,45.5Z"/>
        <path class="av" d="M423.28,586.38c.82,15-.31,29.85-2.6,44.62l-67.56,34.63,26.09-56.17,35.15-69.1c4.97,14.86,8.05,30.31,8.92,46.02Z"/>
        <path class="aa" d="M353.12,665.63l67.56-34.63c-1.8,11.59-4.31,23.13-7.16,34.64h0c-.9,1.3-46.57,67.57-47.59,85.77,0,0-26.22,109.32,82.38,172.11-109.8-57.2-127.31-167-127.31-167l32.12-90.89Z"/>
        <path class="af" d="M414.36,540.36l-35.15,69.1c22.04-47.09-24.27-155.27-26.04-159.37-.02-.05-.04-.09-.04-.11,27.78,24.11,49.64,55.64,61.23,90.38Z"/>
        <path class="bj" d="M365.93,751.41c1.02-18.2,46.69-84.47,47.59-85.76-9.34,37.84-22.24,75.42-25.01,113.74h-.01c-10.11-8.11-22.57-27.98-22.57-27.98Z"/>
        <path class="ag" d="M353.17,450.09c1.77,4.1,48.08,112.28,26.04,159.37l-26.09,56.17s-14.77-85.88-30.6-105.58c10.11-17.02,21.25-33.61,28.29-52.11,7.02-18.46,9.65-39.49,2.36-57.85Z"/>
        <path class="bg" d="M353.12,665.63l-32.12,90.89s-30.63-69.87-40.85-99.79h0c9.37-33.93,24.37-66.35,42.37-96.68,15.83,19.7,30.6,105.58,30.6,105.58Z"/>
        <path class="ax" d="M321,756.52s17.51,109.8,127.31,167c-101.72-24.01-137.51-99.9-137.51-99.9h0s10.2-67.1,10.2-67.1Z"/>
        <path class="bc" d="M321,756.52l-10.2,67.09c-.37-1.25-30.65-103.59-30.65-157.98v-8.9c10.22,29.92,40.85,99.79,40.85,99.79Z"/>
        <path class="am" d="M310.8,823.61h0s-4.56,29.96-4.56,29.96c-5.02-7.14-9.66-14.77-13.8-22.88-21.55-42.21-26.86-91.61-19.86-138.48,1.78-11.99,4.34-23.82,7.57-35.48v8.9c0,54.39,30.28,156.73,30.65,157.98Z"/>
      </g>
    </g>
  </g>
  <g id="d" data-name="Layer 5">
    <g>
      <path class="ad" d="M658.15,609.46c8.07,26.6,9.68,54.9,4.81,82.2l-117.95,76.87c31.76-29.51,113.14-159.07,113.14-159.07Z"/>
      <path class="o" d="M545.01,768.53l117.95-76.87c-1.16,6.53-2.69,13-4.59,19.38-7.34,24.62-18.87,49.18-36.33,68.35l-86.08-4.95c2.15-.27,5.25-2.37,9.05-5.91Z"/>
      <path class="aj" d="M658.15,609.46l-47.19,30.7c-.47.11-1.52.76-3.08,1.88,6.77-27.89-3.68-65.03-14.43-97.27-3.29-41.78-17.37-52.16-18.17-52.83l30.84,16.43c20.79,28.25,37.33,59.63,49.22,92.61,1.01,2.8,1.95,5.63,2.81,8.48Z"/>
      <path class="ba" d="M610.96,640.16l47.19-30.7s-81.38,129.56-113.14,159.07l-9.06,5.91-.21-.02c16.45-14.76,71.81-131.06,71.81-131.06.12-.44.23-.88.33-1.32,1.56-1.12,2.61-1.77,3.08-1.88Z"/>
      <path class="as" d="M535.96,774.44l86.08,4.95c-5.27,5.81-11.1,11.13-17.53,15.81-20.51,14.94-45.89,22.58-69.19,31.05-16.24,5.9-32.18,12.47-46.39,22.56-7.77,5.51-14.89,12.3-20.59,20,0,0,4.34-32.19,67.61-94.37h.01Z"/>
      <path class="x" d="M593.45,544.77c10.75,32.24,21.2,69.38,14.43,97.27-8.76,6.3-33.52,27.56-60.18,50.87l2.2-4.07c31.22-77.45,43.55-144.07,43.55-144.07Z"/>
      <path class="ar" d="M547.7,692.91c26.66-23.31,51.42-44.57,60.18-50.87-.1.44-.21.88-.33,1.32,0,0-55.36,116.3-71.81,131.06l-73.27-5.99s44.8-40.14,85.23-75.52Z"/>
      <path class="k" d="M606.12,508.37l-30.84-16.43-2.55-1.36-90.6-48.28h-.01c-.38-.63-12.72-20.83-29.38-87.33h.01c20.51,26.17,48.18,46.35,71.77,69.55,26.27,25.83,55.12,49.17,77.64,78.57,1.34,1.75,2.66,3.51,3.96,5.28Z"/>
      <path class="bd" d="M593.45,544.77l-67.07,99.74c23.31-49.99,48.5-150.98,48.89-152.55.01-.01.01-.02.01-.02.8.67,14.88,11.05,18.17,52.83Z"/>
      <path class="j" d="M526.38,644.51l67.07-99.74s-12.33,66.62-43.55,144.07l-2.2,4.07c-40.43,35.38-85.23,75.52-85.23,75.52.43-26.9,32.59-109.96,32.59-109.96l31.32-13.96Z"/>
      <path class="n" d="M575.28,491.94s0,0-.01.02l-36.97,41.23-56.17-90.89,90.6,48.28,2.55,1.36Z"/>
      <path class="t" d="M538.3,533.19l36.97-41.23c-.39,1.57-25.58,102.56-48.89,152.55v-99.74l11.92-11.58Z"/>
      <path class="ai" d="M482.13,442.3l56.17,90.89-11.92,11.58c-11.78-23.86-71.49-88.06-92.08-109.86-.01,0-.01-.02-.02-.03-3.76-4.24-6.25-6.64-6.84-7.19-.03-.04-.06-.07-.08-.08l-.04-.04-.02-.02-.32-61.85s42.87,63.63,55.14,76.59h.01Z"/>
      <path class="bt" d="M434.38,864.67s-.01-.01-.01-.02c0,0,14.74-53.67,99.84-89.08.19-.11.4-.24.61-.4.03-.01.06-.03.09-.06l1.04-.67c-63.27,62.18-67.61,94.37-67.61,94.37-8.13,10.95-13.36,23.74-13.42,37.3-8.67-13.94-16-26.02-20.54-41.44Z"/>
      <path class="g" d="M462.47,768.43l73.27,5.99c-.29.27-.57.5-.83.69-.03.03-.06.05-.09.06l-.61.4c-85.1,35.41-99.84,89.08-99.84,89.08-.39-1.31-.75-2.65-1.1-4.02-.49-1.93-.95-3.88-1.39-5.82-3.61-33.38,30.59-86.38,30.59-86.38Z"/>
      <polygon class="bb" points="526.38 544.77 526.38 644.51 501.53 582.55 526.38 544.77"/>
      <path class="be" d="M526.38,544.77l-24.85,37.78c-14.63-81.12-51.7-130.09-67.23-147.64,20.59,21.8,80.3,86,92.08,109.86Z"/>
      <polygon class="r" points="501.53 582.55 526.38 644.51 495.06 658.47 501.53 582.55"/>
      <path class="ao" d="M501.53,582.55l-6.47,75.92s-32.16,83.06-32.59,109.96c0,0-34.2,53-30.59,86.38-3.31-14.61-5.27-29.52-6.05-44.49-1.73-33.37,2.34-66.92,10.42-99.3,7.58-30.34,18.62-60.13,26.22-90.4h.01s39.05-38.07,39.05-38.07Z"/>
      <path class="al" d="M501.53,582.55l-39.05,38.06c4.73-18.84,8.12-37.86,8.52-57.32.91-44.32-14.12-87.98-37.35-125.74-2.06-3.34-4.19-6.66-6.33-9.98l.04.04s.05.05.08.08c.59.62,3.05,3.19,6.84,7.19.01.01.01.02.02.03,15.53,17.55,52.6,66.52,67.23,147.64Z"/>
      <path class="bk" d="M452.74,354.97c16.66,66.5,29,86.7,29.38,87.32-12.27-12.96-55.14-76.59-55.14-76.59-17.02-70.01,3.06-96.01,5.38-98.73.12-.13.19-.2.21-.23-10.77,27.08-1.23,58.6,15.73,82.3,1.44,2.01,2.92,3.98,4.45,5.92h-.01Z"/>
      <path class="s" d="M426.98,365.7l.32,61.85c-11.64-17.94-23.89-35.76-28.82-56.42-4.14-17.37-2.59-35.23,2.89-52.18.65,7.07,25.61,46.75,25.61,46.75Z"/>
      <path class="w" d="M432.36,266.97c-2.32,2.72-22.4,28.72-5.38,98.73,0,0-24.96-39.68-25.61-46.75,6.17-19.14,17.35-37.13,30.99-51.98Z"/>
    </g>
  </g>
  <g id="e" data-name="Layer 6">
    <g>
      <path class="bm" d="M845.64,612.19c7.31,47.47,2.61,96.81-13.33,142.13l-77.27,60.74-12.82,1.71,44.25-107.58,59.17-97Z"/>
      <path class="an" d="M845.64,612.19l-59.17,97s-138.05,127.58-163.71,134.68c-.02.01-.04.01-.06.02l-2,.45s-108.03,23.24-129.48,35.25c11.18-9.71,24.42-17.51,37.82-23.78,22.7-10.63,46.94-18.21,68.94-30.03,71.94-14.16,111.26-59.54,131.57-95.06,48.26-62.14,80.52-217.54,80.87-219.22,10.21,18.71,18.89,38.18,25.42,58.73,4.36,13.72,7.62,27.76,9.8,41.96Z"/>
      <path class="ab" d="M755.04,815.06l77.27-60.74c-7.19,20.45-16.67,40.09-28.36,58.37-10.79,16.86-23.42,32.5-37.52,46.67l-68.31-3.38c29.57-19.56,56.42-38.03,56.92-40.92Z"/>
      <path class="h" d="M748.42,686.7c.36-1.32.52-2.02.52-2.02,9.45-27.83,5.11-108,5.11-108l6.13-84.74,3.2-51.33h0c17.37,22.75,33.53,46.14,47.03,70.88h0c-.35,1.69-32.61,157.09-80.87,219.23,11.91-20.83,17.28-38.27,18.87-44.02Z"/>
      <path class="bp" d="M786.47,709.19l-44.25,107.58-119.46,27.1c25.66-7.1,163.71-134.68,163.71-134.68Z"/>
      <path class="l" d="M698.12,855.98l68.31,3.38c-19.78,19.89-42.46,36.91-67.06,50.43h-.01l-77.05-4.7c7.9-5.03,43.48-27.72,75.81-49.11Z"/>
      <path class="ak" d="M763.39,440.61h0l-3.2,51.33-30.95-94.03c11.63,14.09,23.13,28.26,34.16,42.7Z"/>
      <path class="at" d="M729.23,397.91l30.95,94.03-6.13,84.74-47.49-63.83-6.38-26.04,23.78-95.27h0c1.75,2.11,3.51,4.24,5.26,6.37Z"/>
      <path class="bf" d="M742.22,816.77l12.82-1.71c-.5,2.89-27.35,21.36-56.92,40.92-32.33,21.39-67.91,44.08-75.81,49.11l-146.46-8.93c4.4-6.06,9.61-11.57,15.37-16.57,21.45-12.01,129.48-35.25,129.48-35.25l2-.45s.04,0,.06-.02l119.46-27.1Z"/>
      <path class="az" d="M754.05,576.68s4.34,80.17-5.11,108c0,0-.16.7-.52,2.02l-28.07-51.3,33.7-58.72Z"/>
      <path class="bq" d="M706.56,512.85l47.49,63.83-33.7,58.72c-23.31-35.72-65.05-89.78-65.7-90.62h-.01s51.92-31.93,51.92-31.93Z"/>
      <path class="ah" d="M720.35,635.4l28.07,51.3c-1.59,5.75-6.96,23.19-18.87,44.02-20.31,35.52-59.63,80.9-131.57,95.06,3.85-2.06,7.63-4.26,11.32-6.62,38.58-24.68,64.52-66.76,73.65-111.64,1.05-5.16,1.89-10.36,2.52-15.57h0s34.88-56.55,34.88-56.55Z"/>
      <path class="aw" d="M723.97,391.53h0s-23.78,95.28-23.78,95.28l-31.15-29.36-31.66-156.77-9.42-33.95.9-.62c21.69,31.36,40.63,58.24,50.45,70.74,14.45,18.39,29.6,36.49,44.67,54.68Z"/>
      <path class="y" d="M720.35,635.4l-34.88,56.54c4.89-40.11-2.25-81.47-17.57-118.99-3.94-9.64-8.38-19.02-13.25-28.17.65.84,42.39,54.9,65.7,90.62Z"/>
      <path class="ay" d="M700.18,486.81l6.38,26.04-136.58-80.63c-3.86-4.18-7.74-8.34-11.62-12.47-21.4-22.79-43.95-46.56-55.77-74.96h.01s127.79,75.69,134.77,77.75c17.99,20.87,31.66,34.91,31.66,34.91l31.15,29.36Z"/>
      <path class="bo" d="M706.56,512.85l-51.92,31.92c-21.99-41.31-52.66-77.85-84.66-112.55l136.58,80.63Z"/>
      <path class="p" d="M622.31,905.09l77.05,4.7c-12.16,6.69-24.78,12.52-37.75,17.41l-74-3.03,33.09-18.06s.56-.36,1.61-1.02Z"/>
      <path class="bs" d="M637.37,300.68l31.66,156.77s-13.67-14.04-31.66-34.91c-34.06-39.52-83.61-103.55-85.28-143.31l85.28,21.45Z"/>
      <path class="bh" d="M587.61,924.17l74,3.03c-2.89,1.1-5.8,2.14-8.72,3.14-27.04,9.24-55.99,14.79-84.38,17.11-12.55.47-25.01-.34-37.11-2.57l56.21-20.71Z"/>
      <path class="bu" d="M627.95,266.73l9.42,33.95-85.28-21.45,51.53-49.78c8.57,12.5,17.1,24.9,25.23,36.66l-.9.62Z"/>
      <path class="q" d="M475.85,896.16l146.46,8.93c-1.05.66-1.61,1.02-1.61,1.02l-33.09,18.06-56.21,20.71c-23.87-4.36-46.35-14.2-65.46-30.47,2.48-6.58,5.85-12.66,9.91-18.25Z"/>
      <path class="u" d="M603.62,229.45l-51.53,49.78c2.62-55.19-23.04-141.96-30.4-165.54-.02-.04-.03-.09-.04-.13-.54-1.89-1.14-3.78-1.81-5.67-.04-.14-.07-.23-.08-.26,14.12,19.62,47.94,69.42,81.45,118.31.8,1.17,1.6,2.34,2.41,3.51Z"/>
      <path class="m" d="M552.09,279.23c1.67,39.76,51.22,103.79,85.28,143.31-6.98-2.06-134.77-77.75-134.77-77.75h-.01c-2.47-5.95-4.48-12.11-5.9-18.5l55.4-47.06Z"/>
      <path class="bi" d="M521.69,113.69c7.36,23.58,33.02,110.35,30.4,165.54l-55.4,47.06c-15.73-70.56,44.38-144.18,25-212.6Z"/>
    </g>
  </g>
  <g id="f" data-name="Layer 7">
    <g>
      <polygon class="br" points="751.06 293.5 753.11 305.28 735.74 293.5 751.06 293.5"/>
      <polygon class="bl" points="744.43 279.23 751.06 293.5 735.74 293.5 744.43 279.23"/>
      <polygon class="i" points="701.53 297.62 681.62 322.13 685.7 292.26 701.53 297.62"/>
      <path class="ac" d="M663.75,265.63c.61.45,23.96,17.81,21.95,26.63l-4.08,29.87-9.71-24.51c2.52-14.6-7.87-31.52-8.16-31.99Z"/>
      <path class="z" d="M663.74,265.62c9.2-4.43,31.66,12.08,31.66,12.08l6.13,19.92-15.83-5.36c2.01-8.82-21.34-26.18-21.95-26.63h-.01Z"/>
      <polygon class="ap" points="351.23 316.51 331.83 327.74 335.15 312.68 351.23 316.51"/>
      <polygon class="bn" points="338.47 297.62 351.23 316.51 335.15 312.68 338.47 297.62"/>
      <path class="v" d="M293.02,466.13l20.43,42.89-5.62,30.98-14.81-25.87c10.72-18.9,0-48,0-48Z"/>
      <polygon class="aq" points="329.28 513.11 307.83 540 313.45 509.02 329.28 513.11"/>
      <polygon class="au" points="318.55 488.09 329.28 513.11 313.45 509.02 293.02 466.13 318.55 488.09"/>
    </g>
  </g>
</svg>